# xmcd
#
# Track frame offsets: 
#        150
#        18144
#        38762
#        57103
#        74760
#        95675
#        120168
#        146682
#        166187
#        184921
#        210686
#        227915
#        238735
#        258931
#        269488
#
# Disc length: 3954 seconds
#
# Revision: 5
# Processed by: cddbd v1.5.2PL0 Copyright (c) Steve Scherf et al.
# Submitted via: ExactAudioCopyFreeDBPlugin 1.0
#
DISCID=d40f700f
DTITLE=Dixie Chicks - Essential [CD 1)
DYEAR=2010
DGENRE=Country
TTITLE0=Not Ready To Make Nice
TTITLE1=The Long Way Around
TTITLE2=Easy Silence
TTITLE3=Lubbock Or Leave It
TTITLE4=Bitter End
TTITLE5=Silent House
TTITLE6=Lullaby
TTITLE7=Everybody Knows
TTITLE8=Long Time Gone
TTITLE9=Travelin' Soldier
TTITLE10=Landslide
TTITLE11=Lil' Jack Slade
TTITLE12=Truth No. 2
TTITLE13=White Trash Wedding
TTITLE14=Top Of The World
EXTD=
EXTT0=
EXTT1=
EXTT2=
EXTT3=
EXTT4=
EXTT5=
EXTT6=
EXTT7=
EXTT8=
EXTT9=
EXTT10=
EXTT11=
EXTT12=
EXTT13=
EXTT14=
PLAYORDER=
